<?xml version="1.0" standalone="no"?>
<!DOCTYPE svg PUBLIC "-//W3C//DTD SVG 20010904//EN"
 "http://www.w3.org/TR/2001/REC-SVG-20010904/DTD/svg10.dtd">
<svg version="1.0" xmlns="http://www.w3.org/2000/svg"
 width="300.000000pt" height="300.000000pt" viewBox="0 0 300.000000 300.000000"
 preserveAspectRatio="xMidYMid meet">
<metadata>
Created by potrace 1.11, written by Peter Selinger 2001-2013
</metadata>
<g transform="translate(0.000000,300.000000) scale(0.100000,-0.100000)"
fill="#000000" stroke="none">
<path d="M0 1500 l0 -1500 1500 0 1500 0 0 1500 0 1500 -1500 0 -1500 0 0
-1500z m2822 4 c2 -735 1 -1338 -1 -1340 -2 -2 -604 -4 -1338 -4 l-1333 0 0
1340 0 1340 1335 0 1335 0 2 -1336z"/>
<path d="M290 1500 l0 -1210 1208 2 1207 3 3 1208 2 1207 -1210 0 -1210 0 0
-1210z m956 155 c129 -335 235 -614 237 -618 1 -5 111 270 244 610 l241 618
216 3 216 2 0 -34 0 -34 -77 -11 c-42 -6 -79 -14 -82 -17 -3 -3 -8 -302 -9
-664 l-4 -658 41 -6 c23 -3 59 -9 81 -12 37 -5 40 -8 40 -39 l0 -32 -262 1
-263 1 -3 27 c-4 33 16 44 100 53 49 5 59 10 63 28 3 12 4 302 3 644 l-3 622
-280 -715 c-272 -694 -281 -714 -307 -714 -19 0 -29 7 -36 28 -26 71 -524
1338 -528 1341 -2 3 -3 -272 -2 -610 l3 -614 55 -8 c127 -18 120 -15 120 -51
l0 -33 -230 0 -230 1 0 32 c0 34 16 44 76 44 17 0 46 3 63 6 l31 7 0 651 c0
358 -4 656 -8 663 -4 6 -41 17 -82 25 -58 10 -76 17 -78 31 -9 47 -5 48 214
45 l207 -3 233 -610z"/>
</g>
</svg>
