<?xml version="1.0" standalone="no"?>
<!DOCTYPE svg PUBLIC "-//W3C//DTD SVG 20010904//EN"
 "http://www.w3.org/TR/2001/REC-SVG-20010904/DTD/svg10.dtd">
<svg version="1.0" xmlns="http://www.w3.org/2000/svg"
 width="300.000000pt" height="300.000000pt" viewBox="0 0 300.000000 300.000000"
 preserveAspectRatio="xMidYMid meet">
<metadata>
Created by potrace 1.11, written by Peter Selinger 2001-2013
</metadata>
<g transform="translate(0.000000,300.000000) scale(0.100000,-0.100000)"
fill="#000000" stroke="none">
<path d="M0 1505 l0 -1495 1498 2 1497 3 0 1490 0 1490 -1497 3 -1498 2 0
-1495z m2930 0 l0 -1425 -1430 0 -1430 0 0 1425 0 1425 1430 0 1430 0 0 -1425z"/>
<path d="M190 1505 l0 -1305 1308 2 1307 3 0 1300 0 1300 -1307 3 -1308 2 0
-1305z m974 130 c170 -421 312 -762 315 -759 3 3 143 346 311 762 l306 757
138 3 c92 2 135 -1 131 -8 -3 -5 -31 -10 -60 -10 -48 0 -55 -3 -60 -22 -3 -13
-4 -385 -3 -828 l3 -805 58 -3 c31 -2 57 -7 57 -12 0 -6 -77 -10 -191 -10
-124 0 -188 3 -184 10 3 5 30 10 60 10 39 0 54 4 59 16 9 24 7 1629 -2 1618
-5 -5 -159 -381 -342 -836 -184 -456 -339 -828 -345 -828 -5 0 -163 378 -349
840 -187 462 -341 840 -343 840 -2 0 -3 -371 -3 -825 l0 -825 70 0 c40 0 70
-4 70 -10 0 -6 -57 -10 -151 -10 -97 0 -148 4 -144 10 3 6 35 10 71 10 l64 0
0 830 0 830 -70 0 c-40 0 -70 4 -70 10 0 6 56 10 148 10 l147 0 309 -765z"/>
</g>
</svg>
